<?xml version="1.0" encoding="UTF-8"?>
<svg id="Camada_1" xmlns="http://www.w3.org/2000/svg" version="1.1" viewBox="0 0 297 230">
  <!-- Generator: Adobe Illustrator 30.8.1, SVG Export Plug-In . SVG Version: 2.1.4 Build 1)  -->
  <defs>
    <style>
      .st0 {
        fill: #183d3a;
      }

      .st1 {
        fill: #daccba;
      }

      .st2 {
        fill: #abbbb1;
      }

      .st3 {
        fill: #7c8e7e;
      }
    </style>
  </defs>
  <g>
    <rect class="st0" x="194.1" y="124.1" width="4.7" height="32"/>
    <path class="st0" d="M240.4,141h-14.2v13h19.8c.2.7.2,1.4,0,2.2h-24.4v-32h24.1c.2.8.2,1.4,0,2.2h-19.4v12.4h14.2c.1.7.2,1.3,0,2.2h-.1Z"/>
    <path class="st0" d="M172.2,124.5c.3-.7,2-.5,2.7-.2l-15.3,31.7h-4.2l-15.9-31.8h5.1l14.1,28.2,13.6-28h-.1Z"/>
    <path class="st0" d="M120.8,156.2l-13.1-27.7-12.6,27.4c-.6.4-1.7.3-2.6,0l14.6-31.7c1.3-.3,2.3-.3,3.6,0l15.1,31.8h-5v.2Z"/>
    <path class="st0" d="M76.4,153.9c.3.7.2,1.4,0,2.2h-25.6v-31.9h4.7v29.7h20.9Z"/>
  </g>
  <rect class="st1" x="63.1" y="174.1" width="23.4" height="1.5"/>
  <rect class="st1" x="210.8" y="174.1" width="23.4" height="1.5"/>
  <path class="st1" d="M179.5,65.8c1.3-6.9.9-9.8,9.4-10.3-8.5-1.6-8-2.4-9.4-10.4-1.2,8-.5,8.7-9.1,10.4,7.3.4,8.5,2.9,9.1,10.3Z"/>
  <path class="st0" d="M128.6,64.1c4.6-8.9,11.4-21.1,15.8-30.1,6.2,18.2,26.9,33.7,20.8,53.9-.2.5,1.1.7,1.4.5l1-.9c8.6-14.6-4.1-30.9-11.8-43.2-3.8-6.1-6.8-12.2-9.8-19.3-6.3,9.6-11.8,18.6-17.3,27.9-3.2,5.4-7.3,12.7-8.2,18.8l5.1.8c.9-2.9,1.8-5.6,3.2-8.2l-.2-.2Z"/>
  <path class="st0" d="M185.7,80.4c-.9-.2-1.7,2.9-5.1,6-22.4,19.4-41.9-16.1-66.5-10-7.6,1.7-13.3,7.5-14.8,15,0,.9,1.3.8,1.6,0,3.2-5.7,8.7-9.2,15.3-9.7,19.7-1.2,36,23.7,56.7,14.2,6.5-2.8,11.3-7.8,13.4-14.4.2-.6,0-1.1-.5-1.1h0Z"/>
  <path class="st3" d="M164.4,103.6c-15.2,8.4-35.4.6-39.9-16.3l-5.5-1c1.7,22.7,30.5,33.2,46.5,18.2,0-.6-.8-1-1-.9h-.1Z"/>
  <g>
    <path class="st2" d="M197.6,180.7c-.4.1-1.5.3-1.9-.2l-6.1-7.4v7.5c-.8.1-1.3.1-2.1,0v-11c1-.6,2,0,2.6.8l5.4,6.6v-7.4c.8-.2,1.5-.2,2.2,0v11.1h0Z"/>
    <path class="st2" d="M149.9,175.8h-5.4c-.2,1-.1,1.9,0,3.1h6.3c.2.7.1,1.2,0,1.8h-8.4v-11.3h8.3v1.8h-6.1c-.2,1-.2,1.9,0,2.9h5.4c.1.5.2,1,0,1.7h-.1Z"/>
    <path class="st2" d="M107.5,177.9c.3-.3,1.3.8,1.2,1.2-1.1,1.4-3.1,1.9-4.9,1.8-2.6-.2-4.6-1.9-5.2-4s.2-5,2.3-6.5,5.7-1.4,7.7.7-.8,1.5-1.2,1.2c-1.7-1.3-4.1-1.5-5.8,0s-1.7,4.1,0,5.6,4,1.6,5.9,0h0Z"/>
    <path class="st2" d="M129.6,179.1c.3.3.3,1.3,0,1.7h-8v-11.1c.7-.2,1.4-.2,2.1,0v9.3h5.9Z"/>
    <path class="st2" d="M169.9,169.8c-.2-.5-1.9-.5-2.3,0l-5.1,11c.8.2,1.5.1,2.2,0l1.2-2.5h5.8c.4,1,.5,1.9,1.1,2.5.5.4,1.5.2,2.1.1l-5.1-10.9v-.2ZM166.6,176.5l2.2-4.8,2.1,4.8h-4.3Z"/>
  </g>
</svg>